<?xml version="1.0" encoding="utf-8"?>
<svg width="420px" height="99px" viewBox="0 0 420 99" version="1.1" xmlns:xlink="http://www.w3.org/1999/xlink" xmlns="http://www.w3.org/2000/svg">
  <path d="M246.238 69.7619L248.395 69.7619L248.395 68.0495L246.073 68.0495C245.962 67.4552 245.821 66.9001 245.647 66.3841C245.473 65.8681 245.253 65.3757 244.984 64.907L242.876 65.7507Q242.876 69.0789 240.674 71.0945Q238.473 73.1101 235.099 73.1101Q232.593 73.1101 230.614 72.1843C229.294 71.5672 228.143 70.6336 227.159 69.3836C226.269 68.2586 225.605 66.9773 225.168 65.5398C224.73 64.1023 224.512 62.5164 224.512 60.782C224.512 59.221 224.746 57.738 225.215 56.3331Q225.917 54.2257 227.369 52.3994Q228.916 50.4325 230.86 49.4608Q232.804 48.489 235.099 48.489Q237.793 48.489 239.924 49.8566Q242.056 51.2243 243.672 53.9382L245.875 53.0242C245.781 52.6809 245.649 52.283 245.477 51.8305C245.305 51.378 245.102 50.8786 244.867 50.3322L247.188 48.9746L245.992 47.1022L243.906 48.53Q243.227 47.4534 242.407 46.6223Q241.587 45.7912 240.65 45.2063L241.564 42.1375L239.713 41.6687L239.057 44.4102Q238.284 44.1762 237.499 44.0592Q236.714 43.9422 235.894 43.9422Q235.098 43.9422 234.313 44.0359C233.79 44.0984 233.278 44.1842 232.779 44.2934L232.427 41.6687L230.202 42.0906L230.858 44.8789Q229.686 45.3477 228.515 46.0971Q227.344 46.8466 226.196 47.8302L224.158 45.2774L222.612 46.4719L224.72 49.3295Q223.994 50.1491 223.291 51.1212Q222.588 52.0933 221.885 53.2644L219.379 51.4843L218.067 53.3113L220.949 55.2555Q220.222 57.0357 219.789 58.8977Q219.356 60.7597 219.192 62.7273L215.559 63.1964L216.098 65.2838L219.145 64.7913C219.176 66.2766 219.348 67.6799 219.66 69.0011Q220.129 70.9828 221.02 72.7652L218.231 74.3834L219.192 75.9779L222.004 74.5006Q222.824 75.6732 223.738 76.6113Q224.652 77.5493 225.707 78.2763L224.277 80.7156L225.965 82.0281L227.582 79.3551C228.145 79.6054 228.742 79.836 229.375 80.0471C230.008 80.2581 230.668 80.4419 231.356 80.5984L230.512 83.6453L232.598 84.2078L233.254 80.8328Q234.637 81.0672 236.113 80.8797Q237.59 80.6922 239.113 80.082L240.426 83.0125L242.301 81.9109L241.106 79.0501C241.824 78.5811 242.481 78.0416 243.074 77.4318C243.668 76.8219 244.191 76.1496 244.645 75.4147L247.152 76.5404L247.902 74.969L245.395 73.8429C245.691 73.1705 245.906 72.4943 246.039 71.8141Q246.238 70.7938 246.238 69.7619ZM357.52 83.1765L362.301 43.0515L350.172 43.0515L349.856 45.4422L353.922 45.7468L353.805 49.5672L350.406 49.2156L349.973 51.4187L353.805 51.6062L353.758 55.6609L350.453 55.7312L350.172 57.6531L353.688 58.0515L353.688 61.8953L350.172 61.2625L349.926 63.6062L353.641 63.8406L353.57 68.3406L350.336 68.3406L350.09 70.075L353.523 70.2156L353.453 74.3172L350.336 74.2703L350.172 76.2156L353.453 76.4265L353.336 80.7156L350.453 80.3172L350.09 82.45L357.52 83.1765ZM389.606 82.4474Q390.074 81.9915 390.66 81.407L389.453 79.8718Q387.486 81.6062 385.73 82.45Q383.974 83.2937 382.381 83.2937Q380.836 83.2937 379.594 82.486Q378.353 81.6784 377.463 80.0634Q376.714 78.7055 376.351 77.1956Q375.988 75.6857 375.988 73.9769L375.988 73.7195L386.887 71.8211Q386.77 71.1168 386.641 70.5067Q386.512 69.8966 386.324 69.3803L388.973 68.4651L388.504 66.7285L385.762 67.6437Q385.41 66.7988 384.965 66.1065Q384.52 65.4142 384.004 64.9213L386.207 62.5281L384.895 61.4265L382.574 63.7245Q381.801 63.255 380.957 63.0205Q380.113 62.7859 379.176 62.7859L379.598 60.3484L377.934 59.8328L377.301 62.9031Q376.832 62.9734 376.223 63.114Q375.613 63.2547 374.863 63.489L373.316 60.5125L371.207 61.5437L373.129 64.3328Q372.356 64.7781 371.664 65.364Q370.973 65.95 370.387 66.6765L368.16 65.1297L367.082 66.9109L369.356 68.2703Q368.91 69.0906 368.629 70.1453Q368.348 71.2 368.231 72.5125L364.996 73.239L365.723 75.3015L368.231 74.6687Q368.324 75.9109 368.629 77.0945Q368.934 78.2781 369.473 79.4031L366.731 80.8328L367.785 82.4968L370.293 80.9031Q371.02 81.9578 371.969 82.7898Q372.918 83.6218 374.066 84.2547L372.637 86.8797L374.746 88.0281L376.059 85.2156Q377.395 85.6609 378.613 85.8836Q379.832 86.1062 380.91 86.1062L380.723 88.6609L382.832 88.8015L382.879 86.0359Q384.074 85.8956 385.129 85.51Q386.184 85.1244 387.121 84.5634L388.902 86.7625L390.543 85.8023L388.785 83.1839Q389.137 82.9033 389.606 82.4474ZM306.777 84.1492L316.34 83.0593L315.871 80.8328L312.52 81.1843L312.215 79.0515L315.566 78.8875L315.191 76.8484L312.051 77.364L311.629 75.3484L314.605 74.8562L314.371 72.8406L311.324 73.4734L310.973 71.6453L313.949 70.8015Q313.551 69.0672 312.977 67.5906Q312.402 66.114 311.605 64.9187Q310.551 63.325 309.285 62.5164Q308.02 61.7078 306.52 61.7078Q305.184 61.7078 303.848 62.4226C302.957 62.8992 302.074 63.614 301.199 64.5672Q300.309 63.2781 299.031 62.6453Q297.754 62.0125 296.137 62.0125Q294.426 62.0125 292.867 62.9148C291.828 63.5164 290.84 64.4109 289.902 65.5984L289.668 60.7937L284.77 60.0203L281.91 82.6961L290.371 83.2937L290.137 70.8484C290.762 69.1922 291.505 67.95 292.366 67.1218Q293.656 65.8797 295.275 65.8797Q296.401 65.8797 297.246 66.3015Q298.091 66.7234 298.677 67.5437Q299.124 68.1754 299.44 69.0999Q299.757 70.0244 299.968 71.2644Q300.086 72.2473 300.215 73.242Q300.344 74.2366 300.461 75.2195Q300.742 74.0495 301.104 72.9027Q301.467 71.7559 301.982 70.6327Q302.73 68.9708 303.432 68.1401C303.9 67.5863 304.36 67.3093 304.813 67.3093C305.546 67.3093 306.095 67.7315 306.462 68.5759Q307.012 69.8424 306.965 72.3521L306.777 84.1492ZM416.84 80.4226L410.852 85.0281L405.091 75.4656L397.164 84.7234L395.606 83.3289L403.311 72.6062L397.106 62.1414L399.965 60.2781L406.574 68.1765L411.871 60.7L415.481 63.3836L408.941 70.9656L416.84 80.4226ZM275.371 71.3992L278.313 70.6023L277.774 68.2117L274.908 69.4773C274.47 68.3836 273.922 67.3992 273.264 66.5242C272.607 65.6492 271.817 64.8757 270.895 64.2039L272.16 61.9304L270.335 60.8992L269.095 63.1375Q268.088 62.6687 267 62.4226Q265.912 62.1765 264.695 62.1765Q263.475 62.1765 262.336 62.4343C261.578 62.6062 260.838 62.864 260.118 63.2078L258.569 60.5711L256.762 61.8132L258.332 64.2742Q257.113 65.1648 256.213 66.3367C255.612 67.1179 255.125 67.9851 254.751 68.9382L252.062 67.8132L251.524 69.8289L254.137 70.6726Q253.949 71.3054 253.867 71.9968Q253.785 72.6882 253.785 73.4148Q253.785 74.0711 253.879 74.8679Q253.973 75.6648 254.184 76.532L251.524 77.1179L251.944 79.1163L254.866 78.1994C255.193 78.9516 255.595 79.6489 256.071 80.2915Q256.785 81.2554 257.723 82.0314L255.754 84.8523L257.608 85.9304L259.345 83.2234C260.174 83.7234 261.038 84.0906 261.938 84.325Q263.287 84.6765 264.695 84.6765Q265.069 84.6765 265.595 84.6179Q266.121 84.5593 266.823 84.4422L267.244 87.1961L269.395 86.657L268.738 83.8606C270.021 83.3435 271.132 82.6463 272.07 81.769C273.009 80.8917 273.776 79.8185 274.371 78.5495L276.225 79.8656L277.422 77.7976L275.066 76.7195C275.223 76.1726 275.34 75.6257 275.418 75.0789Q275.535 74.2586 275.535 73.4148Q275.535 72.8523 275.488 72.3484C275.457 72.0125 275.418 71.6961 275.371 71.3992ZM345.355 72.4656Q345.355 74.6687 344.711 76.5203Q344.066 78.3718 342.801 79.8953Q341.441 81.5359 339.695 82.3562Q337.949 83.1765 335.793 83.1765Q334.012 83.1765 332.559 82.7429Q331.105 82.3093 330.004 81.4187Q328.832 80.4812 328.246 79.1218Q327.66 77.7625 327.66 75.9812Q327.66 72.8172 329.371 70.8132Q331.082 68.8093 334.246 68.8093Q336.215 68.8093 337.527 70.0632Q338.84 71.3172 338.84 73.3093Q338.84 74.0564 338.652 74.6634Q338.465 75.2704 338.113 75.8076Q337.715 76.3914 337.141 76.6726Q336.566 76.9539 335.84 76.9539Q335.348 76.9539 334.867 76.8015Q334.387 76.6492 333.941 76.3679Q334.855 76.298 335.5 75.6218Q336.145 74.9456 336.145 74.0359Q336.145 72.9578 335.594 72.4187Q335.043 71.8797 333.941 71.8797Q333.215 71.8797 332.641 72.2312Q332.066 72.5828 331.645 73.2859Q331.316 73.8484 331.129 74.5398Q330.941 75.2312 330.941 75.9812Q330.941 77.95 332.266 79.2507Q333.59 80.5515 335.559 80.5515Q336.848 80.5515 337.879 79.989Q338.91 79.4265 339.66 78.3015Q340.34 77.2937 340.691 76.1218Q341.043 74.95 341.043 73.5906Q341.043 70.4031 339.133 68.4461Q337.223 66.489 334.012 66.489Q332.066 66.489 330.602 67.285Q329.137 68.0809 328.105 69.6494Q327.238 70.9605 326.805 72.6809Q326.371 74.4014 326.371 76.4382Q326.371 76.6019 326.453 79.0482Q326.535 81.4945 326.652 86.2468L324.121 86.6218L324.074 88.0515L326.699 87.9343L326.699 89.6687L324.004 89.95L324.121 91.6609L326.699 91.3093L326.77 92.8562L324.004 93.325L323.957 95.0125L326.77 94.5203L326.816 96.3836L318.73 98.4812L322.762 61.4734L326.348 62.0125L326.77 67.7078Q328.152 65.2234 330.707 63.7937Q333.262 62.364 336.145 62.364Q338.301 62.364 340.012 63.1023Q341.723 63.8406 342.965 65.2937Q344.16 66.7 344.758 68.4812Q345.355 70.2625 345.355 72.4656ZM418.469 72.8406Q419.313 71.9851 419.313 70.7898Q419.313 69.6179 418.445 68.7742Q417.578 67.9304 416.43 67.9304Q415.258 67.9304 414.379 68.7742Q413.5 69.6179 413.5 70.7898Q413.5 71.9851 414.356 72.8406Q415.211 73.6961 416.43 73.6961Q417.625 73.6961 418.469 72.8406ZM398.301 74.5047Q399.156 73.6726 399.156 72.4539Q399.156 71.282 398.277 70.4382Q397.398 69.5945 396.203 69.5945Q395.031 69.5945 394.188 70.4382Q393.344 71.282 393.344 72.4539Q393.344 73.6726 394.176 74.5047Q395.008 75.3367 396.203 75.3367Q397.445 75.3367 398.301 74.5047ZM303.391 79.6023Q303.391 80.8914 302.512 81.782Q301.633 82.6726 300.32 82.6726Q299.031 82.6726 298.129 81.782Q297.227 80.8914 297.227 79.6023Q297.227 78.3081 298.129 77.4259Q299.031 76.5437 300.32 76.5437Q301.633 76.5437 302.512 77.4259Q303.391 78.3081 303.391 79.6023ZM202.578 44.0078L202.227 46.4453L197.539 46.7968L197.188 49.6093L202.227 49.75L201.266 53.0781L196.789 52.7968L195.031 65.7109L191.586 66.3203L191.141 52.375L186.922 52.0703L187.625 49.4218L191.094 49.4921L190.977 47.289L186.5 47.6406L185.492 44.0078L190.859 44.0078L190.625 35.8515L199.25 34.8671L197.984 44.0078L202.578 44.0078ZM196.496 40.2695C196.496 39.6289 196.336 39.1484 196.016 38.8281C195.695 38.5078 195.215 38.3476 194.574 38.3476C193.934 38.3476 193.453 38.5078 193.133 38.8281C192.813 39.1484 192.652 39.6289 192.652 40.2695C192.652 40.9257 192.813 41.414 193.133 41.7343C193.453 42.0546 193.934 42.2148 194.574 42.2148C195.215 42.2148 195.695 42.0546 196.016 41.7343C196.336 41.414 196.496 40.9257 196.496 40.2695L196.496 40.2695ZM195.652 46.0351C195.652 45.5195 195.531 45.1367 195.289 44.8867C195.047 44.6367 194.676 44.5117 194.176 44.5117C193.66 44.5117 193.277 44.6367 193.027 44.8867C192.777 45.1367 192.652 45.5195 192.652 46.0351C192.652 46.5351 192.777 46.9062 193.027 47.1484C193.277 47.3906 193.66 47.5117 194.176 47.5117C194.676 47.5117 195.047 47.3906 195.289 47.1484C195.531 46.9062 195.652 46.5351 195.652 46.0351L195.652 46.0351ZM182.469 45.9637C182.469 47.2569 182.189 48.2191 181.628 48.8502C181.067 49.4813 180.227 49.7968 179.106 49.7968C178.086 49.7968 177.321 49.6054 176.812 49.2226C176.302 48.8398 176.047 48.2656 176.047 47.5C176.047 47.125 176.148 46.7851 176.352 46.4804C176.555 46.1757 176.859 45.914 177.266 45.6953L177.945 46.1992C177.836 46.3232 177.75 46.4434 177.688 46.5597C177.625 46.676 177.594 46.7885 177.594 46.8972C177.594 47.2075 177.688 47.4363 177.875 47.5836C178.063 47.731 178.336 47.8046 178.695 47.8046C179.195 47.8046 179.563 47.6843 179.797 47.4436C180.031 47.2028 180.148 46.8261 180.148 46.3134C180.148 45.9096 180.043 45.5446 179.833 45.2183C179.623 44.892 179.308 44.6124 178.887 44.3795C178.56 44.1932 178.198 44.0534 177.801 43.9602C177.403 43.8669 176.971 43.8203 176.504 43.8203C175.908 43.8203 175.372 43.8942 174.894 44.0422C174.416 44.1901 173.966 44.4121 173.543 44.708C173.088 45.0351 172.752 45.4245 172.532 45.8762C172.313 46.3278 172.203 46.8339 172.203 47.3945C172.203 47.9414 172.414 48.4765 172.836 49C173.258 49.5234 173.875 50.0429 174.688 50.5585C176.156 51.496 177.277 52.207 178.051 52.6914C178.824 53.1757 179.234 53.4414 179.281 53.4882C180.125 54.1914 180.75 54.9531 181.156 55.7734C181.563 56.5937 181.766 57.496 181.766 58.4804C181.766 59.7946 181.52 60.9837 181.028 62.0477C180.537 63.1116 179.784 64.0349 178.769 64.8173C177.848 65.5371 176.814 66.0847 175.667 66.4602C174.52 66.8356 173.268 67.0234 171.91 67.0234C171.018 67.0234 170.166 66.9182 169.352 66.7077C168.538 66.4973 167.748 66.1816 166.981 65.7607C166.199 65.3398 165.515 64.8254 164.928 64.2175C164.341 63.6096 163.852 62.916 163.461 62.1367L165.207 60.5078C165.925 61.8515 166.807 62.8515 167.853 63.5078C168.898 64.164 170.1 64.4921 171.458 64.4921C172.691 64.4921 173.701 64.1278 174.49 63.399C175.278 62.6702 175.672 61.7026 175.672 60.496C175.672 59.7148 175.496 58.9531 175.145 58.2109C174.793 57.4687 174.258 56.746 173.539 56.0429C172.883 55.4648 172.219 54.8867 171.547 54.3085C170.875 53.7304 170.203 53.1523 169.531 52.5742C168.828 51.8554 168.297 51.1054 167.938 50.3242C167.578 49.5429 167.398 48.7226 167.398 47.8632C167.398 46.8183 167.625 45.8825 168.079 45.0559C168.533 44.2292 169.198 43.5039 170.074 42.8798C170.841 42.3339 171.698 41.9362 172.644 41.6867C173.591 41.4372 174.62 41.3125 175.731 41.3125C176.651 41.3125 177.485 41.3942 178.234 41.5578C178.983 41.7214 179.646 41.9591 180.223 42.2708C180.987 42.6759 181.552 43.19 181.919 43.8133C182.286 44.4366 182.469 45.1534 182.469 45.9637L182.469 45.9637ZM169.918 56.6054C169.918 57.4023 169.637 58.0781 169.074 58.6328C168.512 59.1875 167.84 59.4648 167.059 59.4648C166.277 59.4648 165.606 59.1835 165.043 58.621C164.481 58.0585 164.199 57.3867 164.199 56.6054C164.199 55.8242 164.481 55.1523 165.043 54.5898C165.606 54.0273 166.277 53.746 167.059 53.746C167.84 53.746 168.512 54.0273 169.074 54.5898C169.637 55.1523 169.918 55.8242 169.918 56.6054L169.918 56.6054ZM161.973 51.4023L159.031 52.1992C159.078 52.496 159.117 52.8125 159.148 53.1484C159.18 53.4843 159.195 53.8398 159.195 54.2148C159.195 54.7773 159.156 55.332 159.078 55.8789C159 56.4257 158.883 56.9726 158.727 57.5195L161.082 58.5976L159.885 60.6656L158.031 59.3494C157.436 60.6185 156.669 61.6917 155.73 62.569C154.792 63.4463 153.681 64.1435 152.398 64.6606L153.055 67.457L150.904 67.996L150.483 65.2421C150.015 65.3203 149.606 65.3789 149.255 65.4179C148.905 65.457 148.605 65.4765 148.356 65.4765C147.417 65.4765 146.498 65.3593 145.598 65.125C144.698 64.8906 143.834 64.5234 143.005 64.0234L141.268 66.7304L139.414 65.6523L141.383 62.8314C140.758 62.314 140.207 61.7341 139.731 61.0915C139.255 60.4489 138.853 59.7515 138.526 58.9993L135.604 59.9163L135.184 57.9179L137.844 57.332C137.703 56.7539 137.602 56.1992 137.539 55.6679C137.477 55.1367 137.445 54.6523 137.445 54.2148C137.445 53.7304 137.473 53.2578 137.527 52.7968C137.582 52.3359 137.672 51.8945 137.797 51.4726L135.184 50.6289L135.722 48.6132L138.411 49.7382C138.785 48.7851 139.272 47.9179 139.873 47.1367C140.473 46.3554 141.18 45.6679 141.992 45.0742L140.422 42.6132L142.229 41.371L143.779 44.0078C144.498 43.664 145.238 43.4062 145.997 43.2343C146.755 43.0625 147.542 42.9765 148.356 42.9765C149.167 42.9765 149.935 43.0585 150.66 43.2226C151.386 43.3867 152.084 43.625 152.755 43.9375L153.995 41.6992L155.82 42.7304L154.555 45.0039C155.477 45.6757 156.267 46.4492 156.924 47.3242C157.582 48.1992 158.13 49.1835 158.568 50.2773L161.434 49.0117L161.973 51.4023ZM152.633 54.2148C152.633 53.2319 152.539 52.327 152.352 51.5003C152.165 50.6735 151.861 49.9168 151.44 49.2303C150.941 48.4036 150.349 47.7836 149.663 47.3701C148.977 46.9567 148.174 46.75 147.254 46.75C146.361 46.75 145.563 46.9567 144.858 47.3701C144.153 47.7836 143.558 48.4115 143.073 49.2537C142.666 49.9403 142.364 50.7008 142.169 51.5354C141.973 52.37 141.875 53.2631 141.875 54.2148C141.875 55.2319 141.973 56.1591 142.169 56.9964C142.364 57.8336 142.658 58.5887 143.049 59.2616C143.535 60.1068 144.13 60.7328 144.835 61.1397C145.539 61.5465 146.346 61.75 147.254 61.75C148.189 61.75 149.008 61.5465 149.71 61.1397C150.411 60.7328 150.996 60.1068 151.464 59.2616C151.838 58.5887 152.126 57.8336 152.329 56.9964C152.532 56.1591 152.633 55.2319 152.633 54.2148L152.633 54.2148ZM133.695 57.5246C133.695 58.8386 133.211 59.9413 132.242 60.8328C131.273 61.7243 129.828 62.389 127.906 62.827C126.797 63.0772 125.25 63.2884 123.266 63.4605C121.281 63.6326 118.859 63.75 116 63.8125C113.391 63.875 111.254 63.9804 109.59 64.1289C107.926 64.2773 106.742 64.4921 106.039 64.7734L107.398 44.8984L104.141 44.6406L104.375 40.6328L107.727 40.5156L108.031 36.1093L104.539 35.8515L104.773 31.914L108.313 32.0312L108.594 27.3906L104.961 26.9921L105.008 23.3593L118.414 24.3203L111.781 59.4296L112.742 59.3828C113.367 59.3515 114.125 59.371 115.016 59.4414C115.906 59.5117 116.922 59.5937 118.063 59.6875C119.297 59.7968 120.352 59.8789 121.227 59.9335C122.102 59.9882 122.813 60.0156 123.359 60.0156C125.828 60.0156 127.68 59.6675 128.914 58.9713C130.148 58.2752 130.766 57.2227 130.766 55.814C130.766 55.3446 130.703 54.8398 130.578 54.2998C130.453 53.7597 130.266 53.1767 130.016 52.5507L131.773 51.5898C132.414 52.7465 132.895 53.8176 133.215 54.8031C133.535 55.7886 133.695 56.6958 133.695 57.5246L133.695 57.5246ZM125.738 47.9804C125.738 48.7773 125.449 49.4687 124.871 50.0546C124.293 50.6406 123.606 50.9335 122.809 50.9335C121.996 50.9335 121.301 50.6406 120.723 50.0546C120.145 49.4687 119.856 48.7773 119.856 47.9804C119.856 47.2148 120.148 46.5468 120.734 45.9765C121.32 45.4062 122.012 45.121 122.809 45.121C123.59 45.121 124.273 45.4062 124.859 45.9765C125.445 46.5468 125.738 47.2148 125.738 47.9804L125.738 47.9804ZM32.6016 4.25391L32.0867 7.98047C31.0571 7.79297 30.0354 7.65234 29.0215 7.55859Q27.5006 7.41797 26.0501 7.41797C24.8176 7.41797 23.5735 7.49609 22.3178 7.65234Q20.4342 7.88672 18.5156 8.33203L20.7422 43.0195L10.125 41.6367L12.75 8.61328L11.1563 8.63672C9.45313 8.66797 7.95703 8.58972 6.66797 8.40198Q4.73438 8.12036 3.46875 7.48645Q1.71094 6.59473 0.855469 5.02222Q0 3.44972 0 1.12573L0 0.539063L1.57031 0Q1.66406 2.63013 3.55078 3.9342Q5.4375 5.23829 9.07031 5.23828Q12.1406 5.23829 18.1992 4.32422Q24.2578 3.41016 27.3281 3.41016Q28.9453 3.41016 30.2813 3.63281Q31.6172 3.85547 32.6016 4.25391ZM59.625 38.2617L59.625 39.8789Q59.625 40.9101 59.6016 42.4102L50.7422 43.8633Q51.6797 39.832 52.1484 36.4922Q52.6172 33.1523 52.6172 30.4805Q52.6172 29.2852 52.4648 28.1484C52.3633 27.3906 52.2266 26.6523 52.0547 25.9336Q51.6797 24.4102 51.0938 23.6367Q50.5078 22.8633 49.7109 22.8633Q48.3516 22.8633 46.8984 23.6012Q45.4453 24.3391 43.8516 25.7911L43.2656 43.1719L36.2109 44.5195L35.7422 42.668L38.8359 42.2227L38.6016 39.1289L35.5078 39.5977L35.1797 37.9336L38.4844 37.582L38.2031 33.7383L35.1328 34.1133L34.8984 32.4258L38.0859 32.1211L37.7578 28.1367L34.8984 28.582L34.4766 26.8008L37.5703 26.4023L37.3359 23.168L34.5469 23.7539L34.1953 21.7383L37.1719 21.3867L36.8203 16.8164L34.2422 17.2852L33.9375 15.457L36.7031 14.8945L36.3281 10.3711L33.9375 10.8867L33.5156 8.98828L36.1406 8.37891L35.9063 5.23828L33.3516 6.15234L32.7891 4.01953L44.7656 1.08984L43.9688 22.3242Q45.7266 20.9883 47.4961 20.332C48.6758 19.8945 49.8594 19.6758 51.0469 19.6758Q53.8125 19.6758 55.6992 21.4453Q57.5859 23.2148 58.5469 26.7305Q59.0859 28.6992 59.3555 31.582Q59.625 34.4648 59.625 38.2617ZM88.7578 42.4076Q89.2266 41.9517 89.8125 41.3672L88.6055 39.832Q86.6385 41.5664 84.8822 42.4102Q83.1259 43.2539 81.5336 43.2539Q79.9878 43.2539 78.7467 42.4462Q77.5056 41.6385 76.6157 40.0236Q75.8665 38.6656 75.5035 37.1558Q75.1406 35.6459 75.1406 33.9371L75.1406 33.6797L86.0391 31.7813Q85.9219 31.077 85.793 30.4669Q85.6641 29.8568 85.4766 29.3405L88.125 28.4253L87.6563 26.6887L84.9141 27.6039Q84.5625 26.759 84.1172 26.0667Q83.6719 25.3744 83.1563 24.8815L85.3594 22.4883L84.0469 21.3867L81.7266 23.6847Q80.9531 23.2152 80.1094 22.9807Q79.2656 22.7461 78.3281 22.7461L78.75 20.3086L77.0859 19.793L76.4531 22.8633Q75.9844 22.9336 75.375 23.0742Q74.7656 23.2148 74.0156 23.4492L72.4688 20.4727L70.3594 21.5039L72.2813 24.293Q71.5078 24.7383 70.8164 25.3242Q70.125 25.9102 69.5391 26.6367L67.3125 25.0898L66.2344 26.8711L68.5078 28.2305Q68.0625 29.0508 67.7813 30.1055Q67.5 31.1602 67.3828 32.4727L64.1484 33.1992L64.875 35.2617L67.3828 34.6289Q67.4766 35.8711 67.7813 37.0547Q68.0859 38.2383 68.625 39.3633L65.8828 40.793L66.9375 42.457L69.4453 40.8633Q70.1719 41.918 71.1211 42.75Q72.0703 43.582 73.2188 44.2148L71.7891 46.8398L73.8984 47.9883L75.2109 45.1758Q76.5469 45.6211 77.7656 45.8438Q78.9844 46.0664 80.0625 46.0664L79.875 48.6211L81.9844 48.7617L82.0313 45.9961Q83.2266 45.8558 84.2813 45.4702Q85.3359 45.0846 86.2734 44.5236L88.0547 46.7227L89.6953 45.7625L87.9375 43.144Q88.2891 42.8635 88.7578 42.4076ZM48.5156 33.5508Q49.5117 30.4688 50.9883 27.4922L50.1445 26.4375Q48.5039 29.0391 47.1797 32.1797Q45.8555 35.3203 44.8242 39L47.0039 39.8203Q47.5195 36.6328 48.5156 33.5508Z" id="The-Lost-Complex" fill="#FFFFFF" fill-rule="evenodd" stroke="none" />
</svg>